<mxfile host="app.diagrams.net" modified="2023-06-15T12:10:10.750Z" agent="Mozilla/5.0 (Windows NT 10.0; Win64; x64) AppleWebKit/537.36 (KHTML, like Gecko) Chrome/114.0.0.0 Safari/537.36" etag="CMLk4ZEWPZUVqGMzyl-l" version="21.3.7" type="device">
  <diagram name="PÃ¡gina-1" id="w0ZG-wOohG28rqQqyBZa">
    <mxGraphModel dx="1050" dy="573" grid="1" gridSize="10" guides="1" tooltips="1" connect="1" arrows="1" fold="1" page="1" pageScale="1" pageWidth="827" pageHeight="1169" math="0" shadow="0">
      <root>
        <mxCell id="0" />
        <mxCell id="1" parent="0" />
        <mxCell id="DoCCAop7JkdK-pMgoXjG-9" style="edgeStyle=orthogonalEdgeStyle;rounded=0;orthogonalLoop=1;jettySize=auto;html=1;entryX=0;entryY=0.5;entryDx=0;entryDy=0;" edge="1" parent="1" source="DoCCAop7JkdK-pMgoXjG-1" target="DoCCAop7JkdK-pMgoXjG-2">
          <mxGeometry relative="1" as="geometry" />
        </mxCell>
        <mxCell id="DoCCAop7JkdK-pMgoXjG-1" value="ESP32" style="rounded=0;whiteSpace=wrap;html=1;" vertex="1" parent="1">
          <mxGeometry x="275" y="300" width="120" height="60" as="geometry" />
        </mxCell>
        <mxCell id="DoCCAop7JkdK-pMgoXjG-11" value="" style="edgeStyle=orthogonalEdgeStyle;rounded=0;orthogonalLoop=1;jettySize=auto;html=1;" edge="1" parent="1" source="DoCCAop7JkdK-pMgoXjG-2" target="DoCCAop7JkdK-pMgoXjG-10">
          <mxGeometry relative="1" as="geometry" />
        </mxCell>
        <mxCell id="DoCCAop7JkdK-pMgoXjG-2" value="Internet" style="rounded=0;whiteSpace=wrap;html=1;" vertex="1" parent="1">
          <mxGeometry x="455" y="300" width="120" height="60" as="geometry" />
        </mxCell>
        <mxCell id="DoCCAop7JkdK-pMgoXjG-4" value="" style="edgeStyle=orthogonalEdgeStyle;rounded=0;orthogonalLoop=1;jettySize=auto;html=1;" edge="1" parent="1" source="DoCCAop7JkdK-pMgoXjG-3" target="DoCCAop7JkdK-pMgoXjG-1">
          <mxGeometry relative="1" as="geometry" />
        </mxCell>
        <mxCell id="DoCCAop7JkdK-pMgoXjG-3" value="Sensor de umidade de solo" style="rounded=0;whiteSpace=wrap;html=1;" vertex="1" parent="1">
          <mxGeometry x="65" y="300" width="120" height="60" as="geometry" />
        </mxCell>
        <mxCell id="DoCCAop7JkdK-pMgoXjG-6" style="edgeStyle=orthogonalEdgeStyle;rounded=0;orthogonalLoop=1;jettySize=auto;html=1;entryX=0;entryY=0.5;entryDx=0;entryDy=0;" edge="1" parent="1" source="DoCCAop7JkdK-pMgoXjG-5" target="DoCCAop7JkdK-pMgoXjG-1">
          <mxGeometry relative="1" as="geometry" />
        </mxCell>
        <mxCell id="DoCCAop7JkdK-pMgoXjG-5" value="Sensor de umidade de solo" style="rounded=0;whiteSpace=wrap;html=1;" vertex="1" parent="1">
          <mxGeometry x="65" y="400" width="120" height="60" as="geometry" />
        </mxCell>
        <mxCell id="DoCCAop7JkdK-pMgoXjG-8" style="edgeStyle=orthogonalEdgeStyle;rounded=0;orthogonalLoop=1;jettySize=auto;html=1;entryX=0;entryY=0.5;entryDx=0;entryDy=0;" edge="1" parent="1" source="DoCCAop7JkdK-pMgoXjG-7" target="DoCCAop7JkdK-pMgoXjG-1">
          <mxGeometry relative="1" as="geometry" />
        </mxCell>
        <mxCell id="DoCCAop7JkdK-pMgoXjG-7" value="Sensor de umidade de solo" style="rounded=0;whiteSpace=wrap;html=1;" vertex="1" parent="1">
          <mxGeometry x="65" y="200" width="120" height="60" as="geometry" />
        </mxCell>
        <mxCell id="DoCCAop7JkdK-pMgoXjG-10" value="Banco de dados" style="rounded=0;whiteSpace=wrap;html=1;" vertex="1" parent="1">
          <mxGeometry x="642" y="300" width="120" height="60" as="geometry" />
        </mxCell>
      </root>
    </mxGraphModel>
  </diagram>
</mxfile>
